<svg width="160" height="159" viewBox="0 0 160 159" fill="none" xmlns="http://www.w3.org/2000/svg">
<path d="M35 114.177V67.2864C35 48.0952 52.0581 37.842 69.9736 36.7764C69.9736 6.14811 121.009 0.96675 121.009 31.2765V48.1157C121.009 56.4064 127.622 62.7277 137.589 63.6595V69.3589C124.118 68.0643 114.792 60.5514 114.792 48.1157V31.2765C114.792 8.22016 76.21 12.1061 76.21 36.7764C93.9279 37.8324 110.647 47.9217 110.647 67.2864V114.177C110.647 159.772 35 159.772 35 114.177Z" fill="#D3562A"/>
<path d="M68.1606 99.4108C65.8288 97.8564 61.1656 105.369 64.0155 107.442C69.3592 111.328 74.8453 117.924 82.6681 123.763C91.7351 130.53 111.165 119.618 107.279 103.038L103.393 89.3073C102.875 87.4938 98.86 87.0618 96.9167 89.3073C94.1939 86.9606 92.5781 86.6594 89.4038 89.3073C87.3476 86.2864 85.7385 86.6713 82.6681 88.271L77.4869 71.6909C76.4504 68.0641 66.606 70.9138 68.1606 76.6132L75.6734 104.592L68.1606 99.4108Z" fill="white"/>
<path d="M66.347 93.4518V89.3067C34.7411 86.4574 55.4662 54.0745 71.7873 66.5091L76.7096 64.4366C50.0259 43.971 25.9327 91.8978 66.347 93.4518Z" fill="white"/>
</svg>
