<svg width="370" height="191" viewBox="0 0 370 191" fill="none" xmlns="http://www.w3.org/2000/svg">
<path d="M0 112.137V68.4458C0 50.5641 15.8941 41.0105 32.5873 40.0176C32.5873 11.4792 80.1405 6.65136 80.1405 34.893V50.5832C80.1405 58.3082 86.3024 64.1982 95.5893 65.0664V70.3769C83.0372 69.1706 74.3472 62.1704 74.3472 50.5832V34.893C74.3472 13.4099 38.3981 17.0307 38.3981 40.0176C54.9071 41.0016 70.485 50.4024 70.485 68.4458V112.137C70.485 154.621 0 154.621 0 112.137Z" fill="#D3562A"/>
<path d="M30.8977 98.3782C28.725 96.9299 24.3801 103.93 27.0355 105.861C32.0145 109.482 37.1264 115.628 44.4154 121.069C52.8637 127.374 70.9678 117.206 67.3472 101.758L63.7264 88.9641C63.2434 87.2744 59.5025 86.8718 57.6917 88.9641C55.1547 86.7775 53.6492 86.4969 50.6915 88.9641C48.7756 86.1494 47.2763 86.508 44.4154 87.9986L39.5877 72.5498C38.6219 69.1705 29.4492 71.8257 30.8977 77.1362L37.898 103.206L30.8977 98.3782Z" fill="white"/>
<path d="M29.208 92.8258V88.9636C-0.241338 86.3087 19.0696 56.1353 34.2771 67.7215L38.8635 65.7904C14.0005 46.7212 -8.44876 91.3779 29.208 92.8258Z" fill="white"/>
<path d="M228.125 141H211.75V87.625L182.938 138.312C182.229 139.604 181.229 140.583 179.938 141.25C178.688 141.917 177.333 142.25 175.875 142.25C174.458 142.25 173.125 141.917 171.875 141.25C170.667 140.583 169.708 139.604 169 138.312L140.062 87.625V141H123.812V58.3125C123.812 56.4375 124.354 54.7708 125.438 53.3125C126.562 51.8542 128.021 50.875 129.812 50.375C130.688 50.1667 131.562 50.1042 132.438 50.1875C133.312 50.2292 134.146 50.4167 134.938 50.75C135.771 51.0417 136.521 51.4792 137.188 52.0625C137.854 52.6042 138.417 53.2708 138.875 54.0625L175.875 118.375L212.875 54.0625C213.833 52.4792 215.146 51.3542 216.812 50.6875C218.521 50.0208 220.292 49.9167 222.125 50.375C223.875 50.875 225.312 51.8542 226.438 53.3125C227.562 54.7708 228.125 56.4375 228.125 58.3125V141ZM327.312 141H268.688C267.188 141 265.562 140.833 263.812 140.5C262.104 140.125 260.396 139.562 258.688 138.812C257.021 138.062 255.417 137.104 253.875 135.938C252.333 134.729 250.958 133.292 249.75 131.625C248.583 129.917 247.646 127.958 246.938 125.75C246.229 123.5 245.875 120.979 245.875 118.188V74.1875C245.875 72.6875 246.042 71.0833 246.375 69.375C246.75 67.625 247.312 65.9167 248.062 64.25C248.812 62.5417 249.792 60.9167 251 59.375C252.208 57.8333 253.646 56.4792 255.312 55.3125C257.021 54.1042 258.979 53.1458 261.188 52.4375C263.396 51.7292 265.896 51.375 268.688 51.375H327.312V67.625H268.688C266.562 67.625 264.938 68.1875 263.812 69.3125C262.688 70.4375 262.125 72.1042 262.125 74.3125V118.188C262.125 120.271 262.688 121.896 263.812 123.062C264.979 124.188 266.604 124.75 268.688 124.75H327.312V141ZM359.062 141H342.812V51.375H359.062V141Z" fill="black"/>
</svg>
